<svg version="1.1" xmlns="http://www.w3.org/2000/svg" viewBox="0 0 1462.8571428571427 957.9305555555554" width="1462.8571428571427" height="957.9305555555554">
  
  <defs>
    <style class="style-fonts">
      @font-face {
        font-family: "Virgil";
        src: url("https://excalidraw.com/Virgil.woff2");
      }
      @font-face {
        font-family: "Cascadia";
        src: url("https://excalidraw.com/Cascadia.woff2");
      }
    </style>
  </defs>
  <rect x="0" y="0" width="1462.8571428571427" height="957.9305555555554" fill="#ffffff"></rect><g stroke-linecap="round" transform="translate(315.77777777777794 10) rotate(0 59.5 50.5)"><path d="M25.25 0 M25.25 0 C45.23 0.31, 66.48 -1.72, 93.75 0 M25.25 0 C43.19 -0.18, 62.48 -0.09, 93.75 0 M93.75 0 C112.33 0.69, 117.7 7.49, 119 25.25 M93.75 0 C110.17 0.86, 119.14 6.84, 119 25.25 M119 25.25 C120.54 41.58, 118.42 53.24, 119 75.75 M119 25.25 C118.9 45.4, 118.09 64.1, 119 75.75 M119 75.75 C117.01 91.33, 111.29 99.43, 93.75 101 M119 75.75 C119.71 90.42, 108.75 102.61, 93.75 101 M93.75 101 C74.37 100, 55.08 99.49, 25.25 101 M93.75 101 C72.11 101.63, 52.08 101.38, 25.25 101 M25.25 101 C7.92 102.85, 0.48 91.23, 0 75.75 M25.25 101 C10.16 102.31, 0.8 92.92, 0 75.75 M0 75.75 C1.61 61.85, -0.26 47.51, 0 25.25 M0 75.75 C-0.39 58.25, -0.99 42.66, 0 25.25 M0 25.25 C0.56 7.66, 9.72 -0.45, 25.25 0 M0 25.25 C0.02 10.47, 6.68 -1.19, 25.25 0" stroke="#000000" stroke-width="1" fill="none"></path></g><g transform="translate(336.27777777777794 34.5) rotate(0 39 26)"><text x="39" y="18" font-family="Virgil, Segoe UI Emoji" font-size="20px" fill="#000000" text-anchor="middle" style="white-space: pre;" direction="ltr">is byte </text><text x="39" y="44" font-family="Virgil, Segoe UI Emoji" font-size="20px" fill="#000000" text-anchor="middle" style="white-space: pre;" direction="ltr">0x1f ?</text></g><g mask="url(#mask-X-G3baLBtMehBbMoukUDW)" stroke-linecap="round"><g transform="translate(336.77777777777794 113) rotate(0 -114.50898127531295 180.58091275643667)"><path d="M-15.43 -0.38 C-19.82 11.18, -7.03 8.74, -40.25 69.27 C-73.47 129.8, -185.75 314.02, -214.74 362.79 M-13.45 -1.63 C-18.08 9.63, -7.4 7.27, -41.09 67.67 C-74.78 128.07, -186.81 311.55, -215.57 360.74" stroke="#000000" stroke-width="1" fill="none"></path></g><g transform="translate(336.77777777777794 113) rotate(0 -114.50898127531295 180.58091275643667)"><path d="M-210.54 331.62 C-210.49 342.59, -213.43 355.13, -216.11 360.37 M-209.51 330.65 C-210.99 340.09, -212.07 347.06, -215.48 360.17" stroke="#000000" stroke-width="1" fill="none"></path></g><g transform="translate(336.77777777777794 113) rotate(0 -114.50898127531295 180.58091275643667)"><path d="M-192.93 342.16 C-199.77 348.94, -209.6 357.34, -216.11 360.37 M-191.9 341.18 C-198.37 347.5, -204.42 351.5, -215.48 360.17" stroke="#000000" stroke-width="1" fill="none"></path></g></g><mask id="mask-X-G3baLBtMehBbMoukUDW"><rect x="0" y="0" fill="#fff" width="636.3860254850338" height="575.2222222222224"></rect><rect x="279.32323232323245" y="168.2716049382716" fill="#000" width="34" height="26" opacity="1"></rect></mask><g transform="translate(279.32323232323245 168.2716049382716) rotate(0 -57.05443582076745 125.30930781816508)"><text x="17" y="18" font-family="Virgil, Segoe UI Emoji" font-size="20px" fill="#000000" text-anchor="middle" style="white-space: pre;" direction="ltr">Yes</text></g><g mask="url(#mask-SF7lBESmqQKe9rtNA_L1E)" stroke-linecap="round"><g transform="translate(452.55555555555577 105.22222222222223) rotate(0 62.259028514556576 63.91587179007837)"><path d="M1.05 -0.6 C15.21 5.72, 65.38 15.88, 85.93 37.15 C106.49 58.41, 118.14 111.93, 124.38 127 M0.14 1.7 C14.05 7.75, 64.26 14.29, 84.91 35.41 C105.57 56.53, 117.63 113.43, 124.07 128.43" stroke="#000000" stroke-width="1" fill="none"></path></g><g transform="translate(452.55555555555577 105.22222222222223) rotate(0 62.259028514556576 63.91587179007837)"><path d="M104.59 104.57 C113.66 115.02, 119.79 122.28, 125.4 127.6 M105.3 103.82 C112.97 112.94, 119.93 123.88, 124.36 127.51" stroke="#000000" stroke-width="1" fill="none"></path></g><g transform="translate(452.55555555555577 105.22222222222223) rotate(0 62.259028514556576 63.91587179007837)"><path d="M124.1 98.22 C125.74 111.24, 124.49 120.91, 125.4 127.6 M124.82 97.47 C124.98 109.13, 124.36 122.54, 124.36 127.51" stroke="#000000" stroke-width="1" fill="none"></path></g></g><mask id="mask-SF7lBESmqQKe9rtNA_L1E"><rect x="0" y="0" fill="#fff" width="676.0732305482885" height="332"></rect><rect x="525.6222222222223" y="128.63430420711978" fill="#000" width="26" height="26" opacity="1"></rect></mask><g transform="translate(525.6222222222223 128.63430420711978) rotate(0 -10.807638152109917 40.503789805180816)"><text x="13" y="18" font-family="Virgil, Segoe UI Emoji" font-size="20px" fill="#000000" text-anchor="middle" style="white-space: pre;" direction="ltr">No</text></g><g stroke-linecap="round" transform="translate(10 480.2083333333336) rotate(0 116.66666666666669 46.11111111111114)"><path d="M23.06 0 M23.06 0 C90.12 1.75, 156.9 1.01, 210.28 0 M23.06 0 C79.64 -0.97, 138.96 -2.14, 210.28 0 M210.28 0 C224.56 1.93, 233.33 7.13, 233.33 23.06 M210.28 0 C225.55 -0.55, 231.13 7.4, 233.33 23.06 M233.33 23.06 C231.39 39.03, 233.94 53.47, 233.33 69.17 M233.33 23.06 C233.17 37.26, 233.06 50.7, 233.33 69.17 M233.33 69.17 C232.25 84.35, 227.49 92.21, 210.28 92.22 M233.33 69.17 C232.25 85.85, 226.22 92.34, 210.28 92.22 M210.28 92.22 C165.01 90.6, 120.35 93, 23.06 92.22 M210.28 92.22 C164.35 90.42, 119.32 91.68, 23.06 92.22 M23.06 92.22 C6.18 93.02, 1.06 82.62, 0 69.17 M23.06 92.22 C5.75 91.92, 1.56 82.4, 0 69.17 M0 69.17 C0.89 59.95, -1.37 51.77, 0 23.06 M0 69.17 C0.11 55.89, -0.4 43.24, 0 23.06 M0 23.06 C-0.55 9.39, 7.08 0.59, 23.06 0 M0 23.06 C-1.3 9.64, 6.37 -0.89, 23.06 0" stroke="#000000" stroke-width="1" fill="none"></path></g><g transform="translate(33.33333333333326 511.2083333333335) rotate(0 91.5 13)"><text x="0" y="18" font-family="Virgil, Segoe UI Emoji" font-size="20px" fill="#000000" text-anchor="start" style="white-space: pre;" direction="ltr">read another byte</text></g><g stroke-linecap="round" transform="translate(490.0000000000001 242.43055555555554) rotate(0 92.22222222222229 21.666666666666686)"><path d="M10.83 0 M10.83 0 C52.77 -1.17, 96.34 0.15, 173.61 0 M10.83 0 C55.43 -0.37, 99.1 -1.89, 173.61 0 M173.61 0 C179.85 1.02, 184.4 2.56, 184.44 10.83 M173.61 0 C183.07 -0.62, 182.36 1.69, 184.44 10.83 M184.44 10.83 C183.96 16.55, 185.44 24.15, 184.44 32.5 M184.44 10.83 C184.93 16.37, 183.97 21.3, 184.44 32.5 M184.44 32.5 C184.37 38.14, 181.31 43.89, 173.61 43.33 M184.44 32.5 C185.56 41.56, 180.23 43.5, 173.61 43.33 M173.61 43.33 C124.97 42.08, 75.24 40.76, 10.83 43.33 M173.61 43.33 C135.93 43.56, 98.64 43.33, 10.83 43.33 M10.83 43.33 C3.84 45.29, -1.48 38.61, 0 32.5 M10.83 43.33 C2.1 43.19, -1.89 38.23, 0 32.5 M0 32.5 C1.77 28.63, 0.42 19.72, 0 10.83 M0 32.5 C-0.01 23.45, 0.46 15.9, 0 10.83 M0 10.83 C-1.97 2.6, 3.06 1.97, 10.83 0 M0 10.83 C-0.83 4.17, 2.92 2.05, 10.83 0" stroke="#000000" stroke-width="1" fill="none"></path></g><g transform="translate(514.4444444444447 255.65277777777771) rotate(0 70.5 13)"><text x="0" y="18" font-family="Virgil, Segoe UI Emoji" font-size="20px" fill="#000000" text-anchor="start" style="white-space: pre;" direction="ltr">is byte 0x02?</text></g><g mask="url(#mask-7Tjnrn_SRlODFFajZpDAT)" stroke-linecap="round"><g transform="translate(576.8245769762806 287.9823669795595) rotate(0 -164.81959044690336 99.65663232908011)"><path d="M-0.2 -0.63 C-55.06 32.72, -273.73 166.65, -328.68 199.94 M-1.76 1.66 C-56.79 34.71, -275.16 165.23, -329.44 198.39" stroke="#000000" stroke-width="1" fill="none"></path></g><g transform="translate(576.8245769762806 287.9823669795595) rotate(0 -164.81959044690336 99.65663232908011)"><path d="M-311.65 175.65 C-315.24 181.55, -323.01 191.76, -330.34 198.14 M-311.47 175.81 C-318.19 185.02, -324.72 192.77, -329.28 197.65" stroke="#000000" stroke-width="1" fill="none"></path></g><g transform="translate(576.8245769762806 287.9823669795595) rotate(0 -164.81959044690336 99.65663232908011)"><path d="M-301.05 193.22 C-308.25 193.09, -319.63 197.31, -330.34 198.14 M-300.87 193.38 C-311.78 195.61, -322.51 196.39, -329.28 197.65" stroke="#000000" stroke-width="1" fill="none"></path></g></g><mask id="mask-7Tjnrn_SRlODFFajZpDAT"><rect x="0" y="0" fill="#fff" width="1005.8713761747832" height="586.8258942696427"></rect><rect x="395.80117737702926" y="374.4041306246012" fill="#000" width="33" height="26" opacity="1"></rect></mask><g transform="translate(395.80117737702926 374.4041306246012) rotate(0 16.203809152347958 13.234868684038503)"><text x="16.5" y="18" font-family="Virgil, Segoe UI Emoji" font-size="20px" fill="#000000" text-anchor="middle" style="white-space: pre;" direction="ltr">yes</text></g><g mask="url(#mask-8v6C_Os2_F5PJxP_0A5vW)" stroke-linecap="round"><g transform="translate(629.6133737278716 286.875) rotate(0 70.05585790120642 49.26369819198632)"><path d="M-0.22 0.31 C23.41 16.47, 118.42 81.57, 141.91 97.63 M-1.8 -0.57 C21.72 15.73, 117.72 82.76, 141.3 99.09" stroke="#000000" stroke-width="1" fill="none"></path></g><g transform="translate(629.6133737278716 286.875) rotate(0 70.05585790120642 49.26369819198632)"><path d="M112.83 92.48 C121.12 92.93, 128.56 95.43, 142.63 97.2 M111.43 91.35 C119.89 93.81, 129.89 95.11, 140.35 98.14" stroke="#000000" stroke-width="1" fill="none"></path></g><g transform="translate(629.6133737278716 286.875) rotate(0 70.05585790120642 49.26369819198632)"><path d="M124.55 75.64 C129.29 81.3, 133.09 89.04, 142.63 97.2 M123.15 74.51 C128.43 81.86, 135.09 87.96, 140.35 98.14" stroke="#000000" stroke-width="1" fill="none"></path></g></g><mask id="mask-8v6C_Os2_F5PJxP_0A5vW"><rect x="0" y="0" fill="#fff" width="870.8869807590273" height="484.6527777777778"></rect><rect x="689.2501772434493" y="322.7638888888889" fill="#000" width="22" height="26" opacity="1"></rect></mask><g transform="translate(689.2501772434493 322.7638888888889) rotate(0 10.419054385628556 13.374809303097408)"><text x="11" y="18" font-family="Virgil, Segoe UI Emoji" font-size="20px" fill="#000000" text-anchor="middle" style="white-space: pre;" direction="ltr">no</text></g><g stroke-linecap="round" transform="translate(668.8888888888891 392.43055555555577) rotate(0 90.5555555555556 26.66666666666663)"><path d="M13.33 0 M13.33 0 C49.96 -0.54, 89.15 0.32, 167.78 0 M13.33 0 C43.9 0.88, 76.7 0.45, 167.78 0 M167.78 0 C178.63 -1.16, 182.58 4.65, 181.11 13.33 M167.78 0 C178.96 1.93, 181.26 4.94, 181.11 13.33 M181.11 13.33 C182.22 23.45, 183.12 31.88, 181.11 40 M181.11 13.33 C181.31 24.8, 180.32 35.42, 181.11 40 M181.11 40 C180.13 50.28, 177.99 52.05, 167.78 53.33 M181.11 40 C179.38 49.36, 177.96 52.62, 167.78 53.33 M167.78 53.33 C114.71 53.15, 58.59 54.45, 13.33 53.33 M167.78 53.33 C129.13 52.16, 89.44 51.71, 13.33 53.33 M13.33 53.33 C3.59 55.31, 0.86 50.51, 0 40 M13.33 53.33 C2.96 53.82, -0.02 48.08, 0 40 M0 40 C-1.04 31.61, 1.67 26.4, 0 13.33 M0 40 C-0.39 31.17, -0.65 24.2, 0 13.33 M0 13.33 C0.44 3.79, 6.01 -1.7, 13.33 0 M0 13.33 C-1.06 3.41, 6.32 1.17, 13.33 0" stroke="#000000" stroke-width="1" fill="none"></path></g><g transform="translate(686.6666666666671 403.43055555555577) rotate(0 75.5 13)"><text x="0" y="18" font-family="Virgil, Segoe UI Emoji" font-size="20px" fill="#000000" text-anchor="start" style="white-space: pre;" direction="ltr">is byte 0x00 ?</text></g><g mask="url(#mask-Y9VK-Qi6YAywFu6vxinMt)" stroke-linecap="round"><g transform="translate(705.3598135508988 447.9861111111112) rotate(0 -54.613726483525284 27.783248996990153)"><path d="M0.8 0.82 C-17.26 9.71, -90.75 45.02, -108.94 53.82 M-0.25 0.2 C-18.43 9.26, -91.91 46.27, -110.02 55.37" stroke="#000000" stroke-width="1" fill="none"></path></g><g transform="translate(705.3598135508988 447.9861111111112) rotate(0 -54.613726483525284 27.783248996990153)"><path d="M-88.09 33.12 C-94.48 39.7, -100.03 44.33, -110.33 55.35 M-89.57 33.6 C-94.23 39.56, -98.05 42.79, -109.14 55.82" stroke="#000000" stroke-width="1" fill="none"></path></g><g transform="translate(705.3598135508988 447.9861111111112) rotate(0 -54.613726483525284 27.783248996990153)"><path d="M-78.87 51.45 C-87.63 53.51, -95.5 53.54, -110.33 55.35 M-80.35 51.94 C-87.18 53.75, -93.12 52.76, -109.14 55.82" stroke="#000000" stroke-width="1" fill="none"></path></g></g><mask id="mask-Y9VK-Qi6YAywFu6vxinMt"><rect x="0" y="0" fill="#fff" width="914.0529604351308" height="601.778560447935"></rect><rect x="634.5132401087828" y="461.88233577952315" fill="#000" width="33" height="26" opacity="1"></rect></mask><g transform="translate(634.5132401087828 461.88233577952315) rotate(0 16.2328469585907 13.887024328578207)"><text x="16.5" y="18" font-family="Virgil, Segoe UI Emoji" font-size="20px" fill="#000000" text-anchor="middle" style="white-space: pre;" direction="ltr">yes</text></g><g stroke-linecap="round" transform="translate(415.55555555555577 486.8750000000001) rotate(0 86.66666666666669 26.666666666666686)"><path d="M13.33 0 M13.33 0 C66.54 1.75, 115.76 2.51, 160 0 M13.33 0 C59.38 -0.74, 108.05 -0.66, 160 0 M160 0 C167.3 -0.69, 174.64 6.16, 173.33 13.33 M160 0 C170.1 1.8, 174.05 2.41, 173.33 13.33 M173.33 13.33 C175.07 23.37, 173.69 32.93, 173.33 40 M173.33 13.33 C172.61 24.06, 173.03 32.73, 173.33 40 M173.33 40 C171.48 50.12, 168.51 54.3, 160 53.33 M173.33 40 C171.69 50.54, 167.31 51.19, 160 53.33 M160 53.33 C106.95 54.68, 55.24 54.91, 13.33 53.33 M160 53.33 C128.21 53.52, 95.47 54.34, 13.33 53.33 M13.33 53.33 C3.02 52.97, -1.62 50.86, 0 40 M13.33 53.33 C3.4 52.31, -0.79 50.48, 0 40 M0 40 C-0.59 32.56, -0.61 24.69, 0 13.33 M0 40 C0.98 33.16, 0.16 26.88, 0 13.33 M0 13.33 C0.68 5.8, 3.04 0.06, 13.33 0 M0 13.33 C-1.06 2.14, 4.46 1.15, 13.33 0" stroke="#000000" stroke-width="1" fill="none"></path></g><g transform="translate(437.77777777777806 496.763888888889) rotate(0 65.5 13)"><text x="0" y="18" font-family="Virgil, Segoe UI Emoji" font-size="20px" fill="#000000" text-anchor="start" style="white-space: pre;" direction="ltr">set flag to 1</text></g><g mask="url(#mask-alcJdY6bzD-t98YxwlUaK)" stroke-linecap="round"><g transform="translate(413.3333333333335 519.0972222222223) rotate(0 -85.11254543335593 8.35964440888523)"><path d="M0.19 0.97 C-27.92 3.59, -141.19 13.69, -169.27 16.28 M-1.17 0.44 C-29.42 2.66, -142.49 12.17, -170.41 14.53" stroke="#000000" stroke-width="1" fill="none"></path></g><g transform="translate(413.3333333333335 519.0972222222223) rotate(0 -85.11254543335593 8.35964440888523)"><path d="M-141.56 1.31 C-148.74 6.16, -155.22 9.08, -171.29 14.19 M-142.75 2.06 C-149.39 5.2, -158.07 9.49, -170.11 13.77" stroke="#000000" stroke-width="1" fill="none"></path></g><g transform="translate(413.3333333333335 519.0972222222223) rotate(0 -85.11254543335593 8.35964440888523)"><path d="M-139.84 21.76 C-147.55 21.49, -154.46 19.29, -171.29 14.19 M-141.02 22.51 C-148.21 20.24, -157.35 19.12, -170.11 13.77" stroke="#000000" stroke-width="1" fill="none"></path></g></g><mask id="mask-alcJdY6bzD-t98YxwlUaK"><rect x="0" y="0" fill="#fff" width="682.2222222222224" height="634.6527777777779"></rect><rect x="307.388888888889" y="513.8750000000001" fill="#000" width="43" height="26" opacity="1"></rect></mask><g transform="translate(307.388888888889 513.8750000000001) rotate(0 20.831899011088524 13.581866631107403)"><text x="21.5" y="18" font-family="Virgil, Segoe UI Emoji" font-size="20px" fill="#000000" text-anchor="middle" style="white-space: pre;" direction="ltr">then</text></g><g mask="url(#mask-PqP9Exv2fbT5sRJASE_pY)" stroke-linecap="round"><g transform="translate(860.0000000000003 442.5696712769952) rotate(0 82.15591154865785 28.496110613254473)"><path d="M0.52 -0.51 C27.92 8.99, 137.64 47.93, 164.98 57.78 M-0.67 -1.82 C26.58 7.73, 136.98 48.54, 164.43 58.81" stroke="#000000" stroke-width="1" fill="none"></path></g><g transform="translate(860.0000000000003 442.5696712769952) rotate(0 82.15591154865785 28.496110613254473)"><path d="M133.59 59.89 C143.31 59.17, 155.12 56.73, 162.78 59.34 M134.56 59.01 C140.08 57.95, 146.77 58.15, 163.89 58.92" stroke="#000000" stroke-width="1" fill="none"></path></g><g transform="translate(860.0000000000003 442.5696712769952) rotate(0 82.15591154865785 28.496110613254473)"><path d="M140.73 40.65 C148.09 46.69, 157.4 50.98, 162.78 59.34 M141.7 39.77 C145.6 42.84, 150.77 47.15, 163.89 58.92" stroke="#000000" stroke-width="1" fill="none"></path></g></g><mask id="mask-PqP9Exv2fbT5sRJASE_pY"><rect x="0" y="0" fill="#fff" width="1124.2201499652278" height="601.3194444444446"></rect><rect x="931.1100749826144" y="458.9445578607199" fill="#000" width="22" height="26" opacity="1"></rect></mask><g transform="translate(931.1100749826144 458.9445578607199) rotate(0 11.045836566043931 12.121224029529799)"><text x="11" y="18" font-family="Virgil, Segoe UI Emoji" font-size="20px" fill="#000000" text-anchor="middle" style="white-space: pre;" direction="ltr">no</text></g><g stroke-linecap="round" transform="translate(945.5555555555558 515.763888888889) rotate(0 87.2222222222224 26.11111111111103)"><path d="M13.06 0 M13.06 0 C49.05 1.81, 83.11 0.92, 161.39 0 M13.06 0 C48.22 2.19, 83.44 2.03, 161.39 0 M161.39 0 C169.67 1.09, 175.71 3.93, 174.44 13.06 M161.39 0 C171.17 -1.95, 173.9 4.96, 174.44 13.06 M174.44 13.06 C176.52 16.81, 174.07 23.85, 174.44 39.17 M174.44 13.06 C174.26 20.26, 174.16 28.62, 174.44 39.17 M174.44 39.17 C175.53 48.65, 170.44 50.9, 161.39 52.22 M174.44 39.17 C173.71 48.89, 168.78 54.14, 161.39 52.22 M161.39 52.22 C127.08 52.06, 95.09 51.52, 13.06 52.22 M161.39 52.22 C101.52 51.23, 42.39 50.7, 13.06 52.22 M13.06 52.22 C3.51 53.59, 0.29 46.57, 0 39.17 M13.06 52.22 C4.5 50.88, 1.72 49.84, 0 39.17 M0 39.17 C-0.77 33.75, 0.54 26.23, 0 13.06 M0 39.17 C-1.05 30.59, 0.42 24.01, 0 13.06 M0 13.06 C-0.55 3.78, 5.25 0.6, 13.06 0 M0 13.06 C0.73 5.55, 4.2 -1.06, 13.06 0" stroke="#000000" stroke-width="1" fill="none"></path></g><g transform="translate(957.7777777777779 528.9861111111112) rotate(0 68 13)"><text x="0" y="18" font-family="Virgil, Segoe UI Emoji" font-size="20px" fill="#000000" text-anchor="start" style="white-space: pre;" direction="ltr">is byte 0xFF?</text></g><g mask="url(#mask-BPVs7X0dm2_aUBF0ecXri)" stroke-linecap="round"><g transform="translate(945.5555555555558 569.0972222222224) rotate(0 -68.56824948492363 38.718574385655415)"><path d="M0.56 0.89 C-22.44 13.74, -114.02 63.51, -137.1 75.96 M-0.6 0.31 C-23.78 13.4, -114.66 64.45, -137.7 77.13" stroke="#000000" stroke-width="1" fill="none"></path></g><g transform="translate(945.5555555555558 569.0972222222224) rotate(0 -68.56824948492363 38.718574385655415)"><path d="M-116.58 55.57 C-126.83 62.74, -134.78 70.18, -139.07 77.56 M-117.62 55.08 C-124.05 60.9, -130.11 69.66, -137.33 76.42" stroke="#000000" stroke-width="1" fill="none"></path></g><g transform="translate(945.5555555555558 569.0972222222224) rotate(0 -68.56824948492363 38.718574385655415)"><path d="M-106.6 73.5 C-120.42 73.98, -132.13 74.69, -139.07 77.56 M-107.64 73.01 C-117.15 72.97, -126.43 75.94, -137.33 76.42" stroke="#000000" stroke-width="1" fill="none"></path></g></g><mask id="mask-BPVs7X0dm2_aUBF0ecXri"><rect x="0" y="0" fill="#fff" width="1183.3333333333335" height="745.763888888889"></rect><rect x="860.166666666667" y="594.4305555555557" fill="#000" width="33" height="26" opacity="1"></rect></mask><g transform="translate(860.1666666666667 594.4305555555557) rotate(0 16.820639403965288 13.385241052322158)"><text x="16.5" y="18" font-family="Virgil, Segoe UI Emoji" font-size="20px" fill="#000000" text-anchor="middle" style="white-space: pre;" direction="ltr">yes</text></g><g mask="url(#mask-98XWABMoo7-yb1GHbzYjN)" stroke-linecap="round"><g transform="translate(1098.555996399226 574.3915298820485) rotate(0 36.97185998030284 57.7956256976932)"><path d="M0.37 -1.06 C12.58 18.13, 60.3 95.9, 72.57 115.1 M-0.9 0.99 C11.76 20.4, 62.45 97.66, 74.84 116.66" stroke="#000000" stroke-width="1" fill="none"></path></g><g transform="translate(1098.555996399226 574.3915298820485) rotate(0 36.97185998030284 57.7956256976932)"><path d="M49.05 97.3 C56.63 103.84, 60.8 107.77, 76.62 118.29 M50.61 98.47 C55.98 102.88, 60.89 105.82, 75.07 116.98" stroke="#000000" stroke-width="1" fill="none"></path></g><g transform="translate(1098.555996399226 574.3915298820485) rotate(0 36.97185998030284 57.7956256976932)"><path d="M66.22 86.07 C69.67 95.35, 69.73 101.98, 76.62 118.29 M67.78 87.23 C69.42 94.01, 70.62 99.38, 75.07 116.98" stroke="#000000" stroke-width="1" fill="none"></path></g></g><mask id="mask-98XWABMoo7-yb1GHbzYjN"><rect x="0" y="0" fill="#fff" width="1271.952001218282" height="789.4607654889915"></rect><rect x="1124.2539988087537" y="618.9261476855198" fill="#000" width="22" height="26" opacity="1"></rect></mask><g transform="translate(1124.2539988087542 618.9261476855199) rotate(0 11.273857570774794 13.261007894221791)"><text x="11" y="18" font-family="Virgil, Segoe UI Emoji" font-size="20px" fill="#000000" text-anchor="middle" style="white-space: pre;" direction="ltr">no</text></g><g stroke-linecap="round" transform="translate(653.3333333333339 644.6527777777778) rotate(0 75.00000000000006 20)"><path d="M10 0 M10 0 C38.76 -1.98, 64.02 -0.55, 140 0 M10 0 C51.16 -0.01, 93.31 -0.48, 140 0 M140 0 C146.84 -0.57, 148.94 4.23, 150 10 M140 0 C148.9 1.95, 150.17 3.73, 150 10 M150 10 C148.43 16.1, 150.4 27.49, 150 30 M150 10 C149.43 16.18, 149.9 23.28, 150 30 M150 30 C148.28 36.66, 146.74 41.61, 140 40 M150 30 C149.42 35.74, 146.91 39.22, 140 40 M140 40 C92.28 40.87, 46.44 41.39, 10 40 M140 40 C113.53 39.13, 86.4 38.22, 10 40 M10 40 C3.58 40.46, -1.55 36.49, 0 30 M10 40 C1.8 39.68, 2.19 37.9, 0 30 M0 30 C0.06 21.99, 0.54 18.38, 0 10 M0 30 C-0.71 24.54, -0.25 19.03, 0 10 M0 10 C-1.48 3.27, 2.43 -0.98, 10 0 M0 10 C-1.63 1.71, 1.13 -2.07, 10 0" stroke="#000000" stroke-width="1" fill="none"></path></g><g transform="translate(675.833333333334 651.6527777777778) rotate(0 52.5 13)"><text x="52.5" y="18" font-family="Virgil, Segoe UI Emoji" font-size="20px" fill="#000000" text-anchor="middle" style="white-space: pre;" direction="ltr">is flag on?</text></g><g mask="url(#mask-brEVTKff5cszStcy7rRTX)" stroke-linecap="round"><g transform="translate(655.5555555555559 687.9861111111113) rotate(0 -53.105581844959204 31.20610803776009)"><path d="M-0.09 0.99 C-17.57 11.12, -87.8 51.81, -105.3 61.94 M-1.6 0.47 C-19.18 10.77, -88.77 50.37, -106.12 60.26" stroke="#000000" stroke-width="1" fill="none"></path></g><g transform="translate(655.5555555555559 687.9861111111113) rotate(0 -53.105581844959204 31.20610803776009)"><path d="M-85.05 37.81 C-90.24 44.13, -95.65 50.5, -104.58 61.38 M-86.56 37.18 C-89.79 43.04, -95.14 47.14, -105.27 60.46" stroke="#000000" stroke-width="1" fill="none"></path></g><g transform="translate(655.5555555555559 687.9861111111113) rotate(0 -53.105581844959204 31.20610803776009)"><path d="M-74.89 55.64 C-82.95 57.23, -91.05 58.87, -104.58 61.38 M-76.4 55.01 C-81.84 57.25, -89.3 57.65, -105.27 60.46" stroke="#000000" stroke-width="1" fill="none"></path></g></g><mask id="mask-brEVTKff5cszStcy7rRTX"><rect x="0" y="0" fill="#fff" width="861.1111111111114" height="849.0972222222224"></rect><rect x="586.2777777777782" y="705.541666666667" fill="#000" width="33" height="26" opacity="1"></rect></mask><g transform="translate(586.2777777777782 705.5416666666667) rotate(0 16.17219593281851 13.650552482204546)"><text x="16.5" y="18" font-family="Virgil, Segoe UI Emoji" font-size="20px" fill="#000000" text-anchor="middle" style="white-space: pre;" direction="ltr">yes</text></g><g mask="url(#mask-u8kLjY3WLDffB2ClnMQGy)" stroke-linecap="round"><g transform="translate(650.0000000000003 672.4305555555558) rotate(0 -200.57696588718449 -49.69007346899156)"><path d="M-1.17 -0.45 C-68.23 -16.94, -334.42 -82.63, -401.17 -98.93 M0.41 -1.74 C-66.82 -18.12, -334.48 -82.1, -401.56 -97.99" stroke="#000000" stroke-width="1" fill="none"></path></g><g transform="translate(650.0000000000003 672.4305555555558) rotate(0 -200.57696588718449 -49.69007346899156)"><path d="M-372.52 -99.68 C-385.57 -99.38, -396.27 -100.77, -401.25 -96.54 M-371.69 -100.77 C-379.85 -100.11, -388.55 -98.49, -401.12 -98.58" stroke="#000000" stroke-width="1" fill="none"></path></g><g transform="translate(650.0000000000003 672.4305555555558) rotate(0 -200.57696588718449 -49.69007346899156)"><path d="M-377.27 -79.72 C-388.43 -87.34, -397.23 -96.7, -401.25 -96.54 M-376.44 -80.81 C-383.39 -85.67, -390.77 -89.57, -401.12 -98.58" stroke="#000000" stroke-width="1" fill="none"></path></g></g><mask id="mask-u8kLjY3WLDffB2ClnMQGy"><rect x="0" y="0" fill="#fff" width="1152.2222222222226" height="870.2083333333337"></rect><rect x="437.88888888888914" y="610.5416666666669" fill="#000" width="22" height="26" opacity="1"></rect></mask><g transform="translate(437.888888888889 610.5416666666669) rotate(0 11.534145223926714 12.198815419897471)"><text x="11" y="18" font-family="Virgil, Segoe UI Emoji" font-size="20px" fill="#000000" text-anchor="middle" style="white-space: pre;" direction="ltr">no</text></g><g stroke-linecap="round" transform="translate(369.77777777777794 733.9861111111112) rotate(0 89 32)"><path d="M16 0 M16 0 C73.53 0.63, 131.71 2.3, 162 0 M16 0 C67.17 -1.83, 119.19 -1.53, 162 0 M162 0 C172.7 -0.58, 176.51 5.61, 178 16 M162 0 C174.82 0.44, 175.84 4.64, 178 16 M178 16 C176.99 22.69, 179.1 34.32, 178 48 M178 16 C178.6 26.8, 176.86 37.81, 178 48 M178 48 C178.9 57.65, 172.68 62.83, 162 64 M178 48 C179.45 59.55, 170.59 65.88, 162 64 M162 64 C128.14 63.54, 98.5 65.61, 16 64 M162 64 C126.81 65.37, 92.52 65.73, 16 64 M16 64 C4.64 65.03, -1.11 58.35, 0 48 M16 64 C3.54 63.53, 2.05 59.89, 0 48 M0 48 C-0.86 39.01, -1.82 33.94, 0 16 M0 48 C1 39.01, -0.47 30.52, 0 16 M0 16 C0 7.22, 3.65 -0.3, 16 0 M0 16 C0.73 7.26, 4.97 -0.13, 16 0" stroke="#000000" stroke-width="1" fill="none"></path></g><g transform="translate(388.77777777777794 752.9861111111112) rotate(0 70 13)"><text x="70" y="18" font-family="Virgil, Segoe UI Emoji" font-size="20px" fill="#000000" text-anchor="middle" style="white-space: pre;" direction="ltr">set flag to 0</text></g><g stroke-linecap="round"><g transform="translate(365.55555555555577 754.6527777777779) rotate(0 -78.75279930171871 -88.48311758633082)"><path d="M-0.18 0.93 C-26.32 -28.6, -131.29 -146.62, -157.32 -176.08 M-1.74 0.38 C-27.43 -28.99, -129.07 -148.21, -154.96 -177.9" stroke="#000000" stroke-width="1" fill="none"></path></g><g transform="translate(365.55555555555577 754.6527777777779) rotate(0 -78.75279930171871 -88.48311758633082)"><path d="M-127.23 -164.33 C-134.67 -166.59, -140.98 -172.49, -155.01 -178.92 M-128.66 -162.75 C-134.78 -167.14, -141.06 -169.24, -154.22 -178.19" stroke="#000000" stroke-width="1" fill="none"></path></g><g transform="translate(365.55555555555577 754.6527777777779) rotate(0 -78.75279930171871 -88.48311758633082)"><path d="M-142.78 -150.94 C-146.34 -156.61, -148.66 -165.95, -155.01 -178.92 M-144.21 -149.36 C-146.95 -156.62, -149.75 -161.71, -154.22 -178.19" stroke="#000000" stroke-width="1" fill="none"></path></g></g><mask></mask><g stroke-linecap="round" transform="translate(1231.7460317460313 840.3670634920634) rotate(0 110.55555555555566 23.333333333333314)"><path d="M11.67 0 M11.67 0 C57.2 -1.59, 99.79 -0.22, 209.44 0 M11.67 0 C75.16 1.85, 137.49 1.57, 209.44 0 M209.44 0 C215.65 -1.96, 221.56 3.63, 221.11 11.67 M209.44 0 C216.66 1.18, 219.18 4.7, 221.11 11.67 M221.11 11.67 C219.7 21.69, 221.74 28.7, 221.11 35 M221.11 11.67 C221.24 19.22, 220.6 27.15, 221.11 35 M221.11 35 C222.8 44.13, 218.55 47.68, 209.44 46.67 M221.11 35 C219.46 41.72, 216.76 47.35, 209.44 46.67 M209.44 46.67 C146.47 49.46, 82.47 48.62, 11.67 46.67 M209.44 46.67 C136.08 44.88, 63 46.26, 11.67 46.67 M11.67 46.67 C3.12 48.08, 1.33 41.72, 0 35 M11.67 46.67 C5.63 46.3, 0.17 41.89, 0 35 M0 35 C0.23 26.07, -1.4 17.83, 0 11.67 M0 35 C0 26.86, -0.39 17.5, 0 11.67 M0 11.67 C-0.76 2.07, 5.43 -1.45, 11.67 0 M0 11.67 C2.15 2.04, 3.31 -2.17, 11.67 0" stroke="#000000" stroke-width="1" fill="none"></path></g><g transform="translate(1253.968253968254 852.4781746031746) rotate(0 87 13)"><text x="0" y="18" font-family="Virgil, Segoe UI Emoji" font-size="20px" fill="#000000" text-anchor="start" style="white-space: pre;" direction="ltr">write byte to file</text></g><g stroke-linecap="round" transform="translate(1104.0476190476188 704.9305555555557) rotate(0 75 20)"><path d="M10 0 M10 0 C58.33 1.74, 110.84 2.57, 140 0 M10 0 C49.81 0, 88.87 1.51, 140 0 M140 0 C145.83 1.27, 148.06 3.18, 150 10 M140 0 C147.72 1.65, 149.37 1.21, 150 10 M150 10 C148.63 13.48, 150.17 19.2, 150 30 M150 10 C149.37 16.17, 149.74 22.14, 150 30 M150 30 C151.62 37.79, 145.77 39.18, 140 40 M150 30 C148.51 36.19, 147.73 40.42, 140 40 M140 40 C114.8 38.56, 88.79 38.1, 10 40 M140 40 C89.24 41.32, 36.3 39.7, 10 40 M10 40 C4.13 38.91, 1.33 35.44, 0 30 M10 40 C1.59 41, -2.02 36.03, 0 30 M0 30 C-0.38 27.13, -1.41 21.97, 0 10 M0 30 C-0.14 23.73, 0.74 17.34, 0 10 M0 10 C-1.35 3.49, 1.74 -0.59, 10 0 M0 10 C-0.94 4.23, 2.38 -1.11, 10 0" stroke="#000000" stroke-width="1" fill="none"></path></g><g transform="translate(1126.5476190476188 711.9305555555557) rotate(0 52.5 13)"><text x="52.5" y="18" font-family="Virgil, Segoe UI Emoji" font-size="20px" fill="#000000" text-anchor="middle" style="white-space: pre;" direction="ltr">is flag on?</text></g><g mask="url(#mask-XQzZ07UWISK4ZTaygkjrW)" stroke-linecap="round"><g transform="translate(1227.6190476190477 747.7876984126985) rotate(0 53.7411320387813 40.779392453780645)"><path d="M0.1 -0.84 C18.29 12.66, 90.57 67.46, 108.79 81.06 M-1.3 1.33 C16.77 15, 89.56 69.01, 107.95 82.4" stroke="#000000" stroke-width="1" fill="none"></path></g><g transform="translate(1227.6190476190477 747.7876984126985) rotate(0 53.7411320387813 40.779392453780645)"><path d="M77.77 74.31 C86.43 77.62, 93.77 80.37, 109.29 84.1 M78.21 73.07 C90.37 76.93, 102.28 80.62, 108.43 82.98" stroke="#000000" stroke-width="1" fill="none"></path></g><g transform="translate(1227.6190476190477 747.7876984126985) rotate(0 53.7411320387813 40.779392453780645)"><path d="M89.93 57.78 C95.27 65.62, 99.28 72.9, 109.29 84.1 M90.38 56.55 C97.76 66.92, 104.84 77.18, 108.43 82.98" stroke="#000000" stroke-width="1" fill="none"></path></g></g><mask id="mask-XQzZ07UWISK4ZTaygkjrW"><rect x="0" y="0" fill="#fff" width="1436.1904761904764" height="929.2162698412699"></rect><rect x="1270.9047619047622" y="775.5019841269843" fill="#000" width="22" height="26" opacity="1"></rect></mask><g transform="translate(1270.904761904762 775.5019841269842) rotate(0 10.455417753066854 13.06510673949498)"><text x="11" y="18" font-family="Virgil, Segoe UI Emoji" font-size="20px" fill="#000000" text-anchor="middle" style="white-space: pre;" direction="ltr">no</text></g><g mask="url(#mask-CncpHWXQdJBPtkalVYGKd)" stroke-linecap="round"><g transform="translate(1110.4761904761904 744.9305555555557) rotate(0 -489.1671534653898 15.967144087165934)"><path d="M-0.72 -0.29 C-108.71 31.38, -484.07 215.93, -647.19 189.17 C-810.32 162.4, -924.1 -102.89, -979.44 -160.89 M1.11 -1.49 C-107.11 30.38, -485.15 216.69, -648.17 190.27 C-811.19 163.84, -921.81 -101.54, -977 -160.04" stroke="#000000" stroke-width="1" fill="none"></path></g><g transform="translate(1110.4761904761904 744.9305555555557) rotate(0 -489.1671534653898 15.967144087165934)"><path d="M-953.29 -142.4 C-962.82 -150.32, -971.67 -156.36, -975.04 -159.75 M-952.27 -141.93 C-959.33 -147.46, -967.1 -152.96, -977.63 -159.46" stroke="#000000" stroke-width="1" fill="none"></path></g><g transform="translate(1110.4761904761904 744.9305555555557) rotate(0 -489.1671534653898 15.967144087165934)"><path d="M-970.34 -130.99 C-973.62 -142.94, -976.31 -153.1, -975.04 -159.75 M-969.32 -130.51 C-971.24 -139.33, -973.88 -148.27, -977.63 -159.46" stroke="#000000" stroke-width="1" fill="none"></path></g></g><mask id="mask-CncpHWXQdJBPtkalVYGKd"><rect x="0" y="0" fill="#fff" width="2189.0476190476184" height="1194.9305555555552"></rect><rect x="446.83333333333326" y="921.9305555555554" fill="#000" width="33" height="26" opacity="1"></rect></mask><g transform="translate(446.8333333333335 921.9305555555555) rotate(0 174.47570367746732 -161.03285591283384)"><text x="16.5" y="18" font-family="Virgil, Segoe UI Emoji" font-size="20px" fill="#000000" text-anchor="middle" style="white-space: pre;" direction="ltr">yes</text></g></svg>